<?xml version="1.0" standalone="no"?>
<!DOCTYPE svg PUBLIC "-//W3C//DTD SVG 20010904//EN"
 "http://www.w3.org/TR/2001/REC-SVG-20010904/DTD/svg10.dtd">
<svg version="1.0" xmlns="http://www.w3.org/2000/svg"
 width="1024.000000pt" height="1024.000000pt" viewBox="0 0 1024.000000 1024.000000"
 preserveAspectRatio="xMidYMid meet">
<metadata>
Created by potrace 1.11, written by Peter Selinger 2001-2013
</metadata>
<g transform="translate(0.000000,1024.000000) scale(0.100000,-0.100000)"
fill="#000000" stroke="none">
<path d="M0 5120 l0 -5120 5120 0 5120 0 0 5120 0 5120 -5120 0 -5120 0 0
-5120z m8620 4010 c18 0 20 -40 6 -75 -9 -20 -43 -71 -77 -113 -34 -42 -126
-167 -205 -279 -80 -111 -166 -228 -192 -260 -26 -32 -135 -174 -242 -316
-182 -241 -265 -356 -530 -733 -57 -82 -153 -219 -214 -304 -193 -272 -294
-431 -431 -675 -90 -161 -253 -485 -314 -627 -24 -53 -56 -118 -73 -145 -17
-26 -46 -77 -63 -113 -18 -36 -58 -108 -90 -160 -62 -102 -78 -131 -124 -226
-16 -33 -51 -94 -79 -135 -27 -41 -68 -111 -90 -157 -23 -45 -56 -103 -73
-127 -18 -25 -30 -47 -28 -49 10 -10 206 -57 399 -96 675 -136 1175 -244 1298
-281 382 -116 673 -318 899 -623 348 -469 462 -995 327 -1514 -33 -127 -116
-325 -193 -459 -83 -146 -177 -269 -294 -385 -90 -90 -107 -102 -220 -156
-368 -178 -681 -254 -1057 -254 -369 -1 -663 74 -945 243 -139 83 -242 169
-367 304 -299 326 -455 704 -513 1250 -35 327 -7 856 60 1125 7 30 17 82 20
115 4 33 15 96 25 140 10 44 21 100 25 125 4 25 27 105 52 179 36 104 43 135
33 141 -7 4 -65 27 -128 51 -63 23 -180 75 -260 115 l-146 73 -81 -79 c-44
-44 -93 -89 -110 -101 -16 -13 -53 -43 -81 -68 -28 -25 -88 -77 -134 -116 -46
-38 -122 -105 -169 -148 -47 -43 -111 -95 -141 -115 -30 -20 -73 -53 -95 -73
-22 -20 -75 -58 -117 -83 -43 -26 -80 -51 -83 -56 -3 -5 -56 -39 -118 -76 -62
-37 -138 -84 -170 -106 -67 -46 -261 -138 -392 -187 -33 -12 -82 -31 -110 -41
-131 -51 -348 -102 -525 -125 -69 -8 -147 -20 -175 -25 -162 -32 -944 -58
-1220 -42 -186 12 -405 50 -405 71 0 4 186 8 413 9 341 1 447 5 612 22 110 11
241 25 290 30 101 10 310 52 400 80 33 10 121 35 195 55 91 24 191 61 300 111
90 41 168 74 173 74 5 0 45 20 88 44 43 25 89 48 101 51 13 4 52 25 86 47 35
22 84 48 109 59 42 18 106 61 232 157 31 23 74 54 96 69 22 14 44 32 48 39 4
8 29 26 55 40 26 15 61 39 77 54 17 14 48 39 70 55 148 108 499 462 524 527
13 35 -13 82 -68 127 -62 49 -254 251 -306 322 -49 66 -173 314 -204 407 -57
169 -72 252 -78 432 -5 157 -4 186 16 280 31 145 56 215 129 359 84 166 224
351 389 512 197 194 354 288 555 333 122 27 271 33 398 17 l55 -7 -30 -13
c-16 -7 -63 -26 -104 -42 -40 -16 -85 -38 -100 -48 -14 -10 -58 -30 -98 -44
-174 -63 -297 -142 -470 -302 -124 -116 -206 -221 -288 -370 -131 -238 -174
-419 -161 -676 13 -254 110 -549 248 -751 42 -63 300 -328 318 -328 11 0 92
73 220 198 47 46 97 90 111 97 15 8 39 29 54 47 15 18 43 42 60 53 18 11 70
55 116 97 46 42 134 120 194 174 230 204 382 356 488 489 92 115 301 347 439
485 52 52 108 114 125 138 18 24 58 70 90 103 32 33 85 88 118 122 34 34 75
82 92 107 17 25 52 65 78 90 26 25 61 65 77 89 17 24 92 106 167 181 140 140
410 436 516 565 33 40 94 110 136 156 41 46 97 113 124 149 26 36 65 83 86
105 20 22 69 83 108 135 110 145 338 408 384 441 22 16 47 27 55 24 7 -3 17
-5 22 -5z"/>
<path d="M6240 6182 c-46 -48 -117 -118 -159 -156 -42 -38 -222 -213 -401
-390 -179 -176 -401 -392 -493 -480 -92 -87 -166 -164 -164 -169 8 -26 467
-231 482 -216 2 2 40 78 86 169 141 283 387 744 464 870 29 47 102 162 162
255 135 209 125 193 114 199 -5 3 -46 -34 -91 -82z"/>
<path d="M5675 4364 c-41 -41 -128 -289 -140 -399 -4 -33 -13 -94 -21 -135
-18 -91 -30 -220 -44 -487 -20 -364 20 -800 101 -1107 25 -95 114 -311 175
-423 144 -266 352 -448 586 -513 81 -23 197 -33 548 -51 262 -13 459 -7 536
15 72 22 301 142 354 186 25 20 61 45 80 55 19 10 65 48 102 85 82 84 266 314
283 355 68 159 107 314 141 560 20 149 14 470 -11 580 -97 431 -357 695 -840
853 -148 48 -265 77 -610 147 -328 68 -545 121 -900 220 -148 41 -282 75 -297
75 -15 0 -34 -7 -43 -16z"/>
</g>
</svg>
